<?xml version="1.0"?>
<svg xmlns="http://www.w3.org/2000/svg" xmlns:xlink="http://www.w3.org/1999/xlink" version="1.1" width="440px" height="440px" viewBox="0 0 440 440"><defs><rect id="block" width="12.0000000000" height="12.0000000000" fill="#000000" fill-opacity="1"/></defs><rect x="0" y="0" width="440" height="440" fill="#ffffff" fill-opacity="1"/><use x="22.0000000000" y="22.0000000000" xlink:href="#block"/><use x="34.0000000000" y="22.0000000000" xlink:href="#block"/><use x="46.0000000000" y="22.0000000000" xlink:href="#block"/><use x="58.0000000000" y="22.0000000000" xlink:href="#block"/><use x="70.0000000000" y="22.0000000000" xlink:href="#block"/><use x="82.0000000000" y="22.0000000000" xlink:href="#block"/><use x="94.0000000000" y="22.0000000000" xlink:href="#block"/><use x="130.0000000000" y="22.0000000000" xlink:href="#block"/><use x="142.0000000000" y="22.0000000000" xlink:href="#block"/><use x="166.0000000000" y="22.0000000000" xlink:href="#block"/><use x="190.0000000000" y="22.0000000000" xlink:href="#block"/><use x="214.0000000000" y="22.0000000000" xlink:href="#block"/><use x="250.0000000000" y="22.0000000000" xlink:href="#block"/><use x="298.0000000000" y="22.0000000000" xlink:href="#block"/><use x="334.0000000000" y="22.0000000000" xlink:href="#block"/><use x="346.0000000000" y="22.0000000000" xlink:href="#block"/><use x="358.0000000000" y="22.0000000000" xlink:href="#block"/><use x="370.0000000000" y="22.0000000000" xlink:href="#block"/><use x="382.0000000000" y="22.0000000000" xlink:href="#block"/><use x="394.0000000000" y="22.0000000000" xlink:href="#block"/><use x="406.0000000000" y="22.0000000000" xlink:href="#block"/><use x="22.0000000000" y="34.0000000000" xlink:href="#block"/><use x="94.0000000000" y="34.0000000000" xlink:href="#block"/><use x="118.0000000000" y="34.0000000000" xlink:href="#block"/><use x="154.0000000000" y="34.0000000000" xlink:href="#block"/><use x="178.0000000000" y="34.0000000000" xlink:href="#block"/><use x="202.0000000000" y="34.0000000000" xlink:href="#block"/><use x="238.0000000000" y="34.0000000000" xlink:href="#block"/><use x="250.0000000000" y="34.0000000000" xlink:href="#block"/><use x="262.0000000000" y="34.0000000000" xlink:href="#block"/><use x="334.0000000000" y="34.0000000000" xlink:href="#block"/><use x="406.0000000000" y="34.0000000000" xlink:href="#block"/><use x="22.0000000000" y="46.0000000000" xlink:href="#block"/><use x="46.0000000000" y="46.0000000000" xlink:href="#block"/><use x="58.0000000000" y="46.0000000000" xlink:href="#block"/><use x="70.0000000000" y="46.0000000000" xlink:href="#block"/><use x="94.0000000000" y="46.0000000000" xlink:href="#block"/><use x="118.0000000000" y="46.0000000000" xlink:href="#block"/><use x="130.0000000000" y="46.0000000000" xlink:href="#block"/><use x="142.0000000000" y="46.0000000000" xlink:href="#block"/><use x="154.0000000000" y="46.0000000000" xlink:href="#block"/><use x="166.0000000000" y="46.0000000000" xlink:href="#block"/><use x="190.0000000000" y="46.0000000000" xlink:href="#block"/><use x="202.0000000000" y="46.0000000000" xlink:href="#block"/><use x="214.0000000000" y="46.0000000000" xlink:href="#block"/><use x="226.0000000000" y="46.0000000000" xlink:href="#block"/><use x="250.0000000000" y="46.0000000000" xlink:href="#block"/><use x="286.0000000000" y="46.0000000000" xlink:href="#block"/><use x="310.0000000000" y="46.0000000000" xlink:href="#block"/><use x="334.0000000000" y="46.0000000000" xlink:href="#block"/><use x="358.0000000000" y="46.0000000000" xlink:href="#block"/><use x="370.0000000000" y="46.0000000000" xlink:href="#block"/><use x="382.0000000000" y="46.0000000000" xlink:href="#block"/><use x="406.0000000000" y="46.0000000000" xlink:href="#block"/><use x="22.0000000000" y="58.0000000000" xlink:href="#block"/><use x="46.0000000000" y="58.0000000000" xlink:href="#block"/><use x="58.0000000000" y="58.0000000000" xlink:href="#block"/><use x="70.0000000000" y="58.0000000000" xlink:href="#block"/><use x="94.0000000000" y="58.0000000000" xlink:href="#block"/><use x="130.0000000000" y="58.0000000000" xlink:href="#block"/><use x="142.0000000000" y="58.0000000000" xlink:href="#block"/><use x="154.0000000000" y="58.0000000000" xlink:href="#block"/><use x="166.0000000000" y="58.0000000000" xlink:href="#block"/><use x="202.0000000000" y="58.0000000000" xlink:href="#block"/><use x="226.0000000000" y="58.0000000000" xlink:href="#block"/><use x="238.0000000000" y="58.0000000000" xlink:href="#block"/><use x="250.0000000000" y="58.0000000000" xlink:href="#block"/><use x="298.0000000000" y="58.0000000000" xlink:href="#block"/><use x="310.0000000000" y="58.0000000000" xlink:href="#block"/><use x="334.0000000000" y="58.0000000000" xlink:href="#block"/><use x="358.0000000000" y="58.0000000000" xlink:href="#block"/><use x="370.0000000000" y="58.0000000000" xlink:href="#block"/><use x="382.0000000000" y="58.0000000000" xlink:href="#block"/><use x="406.0000000000" y="58.0000000000" xlink:href="#block"/><use x="22.0000000000" y="70.0000000000" xlink:href="#block"/><use x="46.0000000000" y="70.0000000000" xlink:href="#block"/><use x="58.0000000000" y="70.0000000000" xlink:href="#block"/><use x="70.0000000000" y="70.0000000000" xlink:href="#block"/><use x="94.0000000000" y="70.0000000000" xlink:href="#block"/><use x="118.0000000000" y="70.0000000000" xlink:href="#block"/><use x="154.0000000000" y="70.0000000000" xlink:href="#block"/><use x="166.0000000000" y="70.0000000000" xlink:href="#block"/><use x="178.0000000000" y="70.0000000000" xlink:href="#block"/><use x="190.0000000000" y="70.0000000000" xlink:href="#block"/><use x="202.0000000000" y="70.0000000000" xlink:href="#block"/><use x="250.0000000000" y="70.0000000000" xlink:href="#block"/><use x="262.0000000000" y="70.0000000000" xlink:href="#block"/><use x="286.0000000000" y="70.0000000000" xlink:href="#block"/><use x="310.0000000000" y="70.0000000000" xlink:href="#block"/><use x="334.0000000000" y="70.0000000000" xlink:href="#block"/><use x="358.0000000000" y="70.0000000000" xlink:href="#block"/><use x="370.0000000000" y="70.0000000000" xlink:href="#block"/><use x="382.0000000000" y="70.0000000000" xlink:href="#block"/><use x="406.0000000000" y="70.0000000000" xlink:href="#block"/><use x="22.0000000000" y="82.0000000000" xlink:href="#block"/><use x="94.0000000000" y="82.0000000000" xlink:href="#block"/><use x="118.0000000000" y="82.0000000000" xlink:href="#block"/><use x="130.0000000000" y="82.0000000000" xlink:href="#block"/><use x="190.0000000000" y="82.0000000000" xlink:href="#block"/><use x="202.0000000000" y="82.0000000000" xlink:href="#block"/><use x="214.0000000000" y="82.0000000000" xlink:href="#block"/><use x="226.0000000000" y="82.0000000000" xlink:href="#block"/><use x="238.0000000000" y="82.0000000000" xlink:href="#block"/><use x="250.0000000000" y="82.0000000000" xlink:href="#block"/><use x="286.0000000000" y="82.0000000000" xlink:href="#block"/><use x="334.0000000000" y="82.0000000000" xlink:href="#block"/><use x="406.0000000000" y="82.0000000000" xlink:href="#block"/><use x="22.0000000000" y="94.0000000000" xlink:href="#block"/><use x="34.0000000000" y="94.0000000000" xlink:href="#block"/><use x="46.0000000000" y="94.0000000000" xlink:href="#block"/><use x="58.0000000000" y="94.0000000000" xlink:href="#block"/><use x="70.0000000000" y="94.0000000000" xlink:href="#block"/><use x="82.0000000000" y="94.0000000000" xlink:href="#block"/><use x="94.0000000000" y="94.0000000000" xlink:href="#block"/><use x="118.0000000000" y="94.0000000000" xlink:href="#block"/><use x="142.0000000000" y="94.0000000000" xlink:href="#block"/><use x="166.0000000000" y="94.0000000000" xlink:href="#block"/><use x="190.0000000000" y="94.0000000000" xlink:href="#block"/><use x="214.0000000000" y="94.0000000000" xlink:href="#block"/><use x="238.0000000000" y="94.0000000000" xlink:href="#block"/><use x="262.0000000000" y="94.0000000000" xlink:href="#block"/><use x="286.0000000000" y="94.0000000000" xlink:href="#block"/><use x="310.0000000000" y="94.0000000000" xlink:href="#block"/><use x="334.0000000000" y="94.0000000000" xlink:href="#block"/><use x="346.0000000000" y="94.0000000000" xlink:href="#block"/><use x="358.0000000000" y="94.0000000000" xlink:href="#block"/><use x="370.0000000000" y="94.0000000000" xlink:href="#block"/><use x="382.0000000000" y="94.0000000000" xlink:href="#block"/><use x="394.0000000000" y="94.0000000000" xlink:href="#block"/><use x="406.0000000000" y="94.0000000000" xlink:href="#block"/><use x="118.0000000000" y="106.0000000000" xlink:href="#block"/><use x="130.0000000000" y="106.0000000000" xlink:href="#block"/><use x="154.0000000000" y="106.0000000000" xlink:href="#block"/><use x="166.0000000000" y="106.0000000000" xlink:href="#block"/><use x="190.0000000000" y="106.0000000000" xlink:href="#block"/><use x="214.0000000000" y="106.0000000000" xlink:href="#block"/><use x="250.0000000000" y="106.0000000000" xlink:href="#block"/><use x="262.0000000000" y="106.0000000000" xlink:href="#block"/><use x="274.0000000000" y="106.0000000000" xlink:href="#block"/><use x="286.0000000000" y="106.0000000000" xlink:href="#block"/><use x="310.0000000000" y="106.0000000000" xlink:href="#block"/><use x="22.0000000000" y="118.0000000000" xlink:href="#block"/><use x="34.0000000000" y="118.0000000000" xlink:href="#block"/><use x="58.0000000000" y="118.0000000000" xlink:href="#block"/><use x="94.0000000000" y="118.0000000000" xlink:href="#block"/><use x="106.0000000000" y="118.0000000000" xlink:href="#block"/><use x="142.0000000000" y="118.0000000000" xlink:href="#block"/><use x="154.0000000000" y="118.0000000000" xlink:href="#block"/><use x="178.0000000000" y="118.0000000000" xlink:href="#block"/><use x="190.0000000000" y="118.0000000000" xlink:href="#block"/><use x="226.0000000000" y="118.0000000000" xlink:href="#block"/><use x="238.0000000000" y="118.0000000000" xlink:href="#block"/><use x="298.0000000000" y="118.0000000000" xlink:href="#block"/><use x="334.0000000000" y="118.0000000000" xlink:href="#block"/><use x="346.0000000000" y="118.0000000000" xlink:href="#block"/><use x="358.0000000000" y="118.0000000000" xlink:href="#block"/><use x="382.0000000000" y="118.0000000000" xlink:href="#block"/><use x="394.0000000000" y="118.0000000000" xlink:href="#block"/><use x="46.0000000000" y="130.0000000000" xlink:href="#block"/><use x="58.0000000000" y="130.0000000000" xlink:href="#block"/><use x="70.0000000000" y="130.0000000000" xlink:href="#block"/><use x="82.0000000000" y="130.0000000000" xlink:href="#block"/><use x="142.0000000000" y="130.0000000000" xlink:href="#block"/><use x="154.0000000000" y="130.0000000000" xlink:href="#block"/><use x="178.0000000000" y="130.0000000000" xlink:href="#block"/><use x="202.0000000000" y="130.0000000000" xlink:href="#block"/><use x="214.0000000000" y="130.0000000000" xlink:href="#block"/><use x="226.0000000000" y="130.0000000000" xlink:href="#block"/><use x="238.0000000000" y="130.0000000000" xlink:href="#block"/><use x="250.0000000000" y="130.0000000000" xlink:href="#block"/><use x="274.0000000000" y="130.0000000000" xlink:href="#block"/><use x="286.0000000000" y="130.0000000000" xlink:href="#block"/><use x="310.0000000000" y="130.0000000000" xlink:href="#block"/><use x="334.0000000000" y="130.0000000000" xlink:href="#block"/><use x="394.0000000000" y="130.0000000000" xlink:href="#block"/><use x="70.0000000000" y="142.0000000000" xlink:href="#block"/><use x="94.0000000000" y="142.0000000000" xlink:href="#block"/><use x="130.0000000000" y="142.0000000000" xlink:href="#block"/><use x="142.0000000000" y="142.0000000000" xlink:href="#block"/><use x="190.0000000000" y="142.0000000000" xlink:href="#block"/><use x="202.0000000000" y="142.0000000000" xlink:href="#block"/><use x="226.0000000000" y="142.0000000000" xlink:href="#block"/><use x="262.0000000000" y="142.0000000000" xlink:href="#block"/><use x="274.0000000000" y="142.0000000000" xlink:href="#block"/><use x="286.0000000000" y="142.0000000000" xlink:href="#block"/><use x="334.0000000000" y="142.0000000000" xlink:href="#block"/><use x="358.0000000000" y="142.0000000000" xlink:href="#block"/><use x="370.0000000000" y="142.0000000000" xlink:href="#block"/><use x="406.0000000000" y="142.0000000000" xlink:href="#block"/><use x="22.0000000000" y="154.0000000000" xlink:href="#block"/><use x="34.0000000000" y="154.0000000000" xlink:href="#block"/><use x="118.0000000000" y="154.0000000000" xlink:href="#block"/><use x="154.0000000000" y="154.0000000000" xlink:href="#block"/><use x="178.0000000000" y="154.0000000000" xlink:href="#block"/><use x="274.0000000000" y="154.0000000000" xlink:href="#block"/><use x="286.0000000000" y="154.0000000000" xlink:href="#block"/><use x="298.0000000000" y="154.0000000000" xlink:href="#block"/><use x="310.0000000000" y="154.0000000000" xlink:href="#block"/><use x="322.0000000000" y="154.0000000000" xlink:href="#block"/><use x="34.0000000000" y="166.0000000000" xlink:href="#block"/><use x="46.0000000000" y="166.0000000000" xlink:href="#block"/><use x="94.0000000000" y="166.0000000000" xlink:href="#block"/><use x="190.0000000000" y="166.0000000000" xlink:href="#block"/><use x="262.0000000000" y="166.0000000000" xlink:href="#block"/><use x="274.0000000000" y="166.0000000000" xlink:href="#block"/><use x="286.0000000000" y="166.0000000000" xlink:href="#block"/><use x="310.0000000000" y="166.0000000000" xlink:href="#block"/><use x="322.0000000000" y="166.0000000000" xlink:href="#block"/><use x="358.0000000000" y="166.0000000000" xlink:href="#block"/><use x="382.0000000000" y="166.0000000000" xlink:href="#block"/><use x="394.0000000000" y="166.0000000000" xlink:href="#block"/><use x="406.0000000000" y="166.0000000000" xlink:href="#block"/><use x="58.0000000000" y="178.0000000000" xlink:href="#block"/><use x="70.0000000000" y="178.0000000000" xlink:href="#block"/><use x="118.0000000000" y="178.0000000000" xlink:href="#block"/><use x="130.0000000000" y="178.0000000000" xlink:href="#block"/><use x="142.0000000000" y="178.0000000000" xlink:href="#block"/><use x="202.0000000000" y="178.0000000000" xlink:href="#block"/><use x="214.0000000000" y="178.0000000000" xlink:href="#block"/><use x="226.0000000000" y="178.0000000000" xlink:href="#block"/><use x="274.0000000000" y="178.0000000000" xlink:href="#block"/><use x="286.0000000000" y="178.0000000000" xlink:href="#block"/><use x="322.0000000000" y="178.0000000000" xlink:href="#block"/><use x="334.0000000000" y="178.0000000000" xlink:href="#block"/><use x="358.0000000000" y="178.0000000000" xlink:href="#block"/><use x="22.0000000000" y="190.0000000000" xlink:href="#block"/><use x="46.0000000000" y="190.0000000000" xlink:href="#block"/><use x="58.0000000000" y="190.0000000000" xlink:href="#block"/><use x="70.0000000000" y="190.0000000000" xlink:href="#block"/><use x="82.0000000000" y="190.0000000000" xlink:href="#block"/><use x="94.0000000000" y="190.0000000000" xlink:href="#block"/><use x="106.0000000000" y="190.0000000000" xlink:href="#block"/><use x="118.0000000000" y="190.0000000000" xlink:href="#block"/><use x="142.0000000000" y="190.0000000000" xlink:href="#block"/><use x="154.0000000000" y="190.0000000000" xlink:href="#block"/><use x="178.0000000000" y="190.0000000000" xlink:href="#block"/><use x="214.0000000000" y="190.0000000000" xlink:href="#block"/><use x="238.0000000000" y="190.0000000000" xlink:href="#block"/><use x="262.0000000000" y="190.0000000000" xlink:href="#block"/><use x="274.0000000000" y="190.0000000000" xlink:href="#block"/><use x="298.0000000000" y="190.0000000000" xlink:href="#block"/><use x="322.0000000000" y="190.0000000000" xlink:href="#block"/><use x="346.0000000000" y="190.0000000000" xlink:href="#block"/><use x="394.0000000000" y="190.0000000000" xlink:href="#block"/><use x="22.0000000000" y="202.0000000000" xlink:href="#block"/><use x="58.0000000000" y="202.0000000000" xlink:href="#block"/><use x="70.0000000000" y="202.0000000000" xlink:href="#block"/><use x="118.0000000000" y="202.0000000000" xlink:href="#block"/><use x="130.0000000000" y="202.0000000000" xlink:href="#block"/><use x="178.0000000000" y="202.0000000000" xlink:href="#block"/><use x="190.0000000000" y="202.0000000000" xlink:href="#block"/><use x="202.0000000000" y="202.0000000000" xlink:href="#block"/><use x="214.0000000000" y="202.0000000000" xlink:href="#block"/><use x="238.0000000000" y="202.0000000000" xlink:href="#block"/><use x="262.0000000000" y="202.0000000000" xlink:href="#block"/><use x="274.0000000000" y="202.0000000000" xlink:href="#block"/><use x="286.0000000000" y="202.0000000000" xlink:href="#block"/><use x="310.0000000000" y="202.0000000000" xlink:href="#block"/><use x="322.0000000000" y="202.0000000000" xlink:href="#block"/><use x="334.0000000000" y="202.0000000000" xlink:href="#block"/><use x="370.0000000000" y="202.0000000000" xlink:href="#block"/><use x="406.0000000000" y="202.0000000000" xlink:href="#block"/><use x="34.0000000000" y="214.0000000000" xlink:href="#block"/><use x="46.0000000000" y="214.0000000000" xlink:href="#block"/><use x="82.0000000000" y="214.0000000000" xlink:href="#block"/><use x="94.0000000000" y="214.0000000000" xlink:href="#block"/><use x="106.0000000000" y="214.0000000000" xlink:href="#block"/><use x="118.0000000000" y="214.0000000000" xlink:href="#block"/><use x="130.0000000000" y="214.0000000000" xlink:href="#block"/><use x="166.0000000000" y="214.0000000000" xlink:href="#block"/><use x="190.0000000000" y="214.0000000000" xlink:href="#block"/><use x="214.0000000000" y="214.0000000000" xlink:href="#block"/><use x="250.0000000000" y="214.0000000000" xlink:href="#block"/><use x="262.0000000000" y="214.0000000000" xlink:href="#block"/><use x="286.0000000000" y="214.0000000000" xlink:href="#block"/><use x="370.0000000000" y="214.0000000000" xlink:href="#block"/><use x="406.0000000000" y="214.0000000000" xlink:href="#block"/><use x="46.0000000000" y="226.0000000000" xlink:href="#block"/><use x="70.0000000000" y="226.0000000000" xlink:href="#block"/><use x="82.0000000000" y="226.0000000000" xlink:href="#block"/><use x="130.0000000000" y="226.0000000000" xlink:href="#block"/><use x="142.0000000000" y="226.0000000000" xlink:href="#block"/><use x="154.0000000000" y="226.0000000000" xlink:href="#block"/><use x="178.0000000000" y="226.0000000000" xlink:href="#block"/><use x="202.0000000000" y="226.0000000000" xlink:href="#block"/><use x="214.0000000000" y="226.0000000000" xlink:href="#block"/><use x="238.0000000000" y="226.0000000000" xlink:href="#block"/><use x="274.0000000000" y="226.0000000000" xlink:href="#block"/><use x="298.0000000000" y="226.0000000000" xlink:href="#block"/><use x="310.0000000000" y="226.0000000000" xlink:href="#block"/><use x="322.0000000000" y="226.0000000000" xlink:href="#block"/><use x="334.0000000000" y="226.0000000000" xlink:href="#block"/><use x="346.0000000000" y="226.0000000000" xlink:href="#block"/><use x="394.0000000000" y="226.0000000000" xlink:href="#block"/><use x="406.0000000000" y="226.0000000000" xlink:href="#block"/><use x="34.0000000000" y="238.0000000000" xlink:href="#block"/><use x="46.0000000000" y="238.0000000000" xlink:href="#block"/><use x="58.0000000000" y="238.0000000000" xlink:href="#block"/><use x="70.0000000000" y="238.0000000000" xlink:href="#block"/><use x="94.0000000000" y="238.0000000000" xlink:href="#block"/><use x="106.0000000000" y="238.0000000000" xlink:href="#block"/><use x="166.0000000000" y="238.0000000000" xlink:href="#block"/><use x="178.0000000000" y="238.0000000000" xlink:href="#block"/><use x="190.0000000000" y="238.0000000000" xlink:href="#block"/><use x="202.0000000000" y="238.0000000000" xlink:href="#block"/><use x="214.0000000000" y="238.0000000000" xlink:href="#block"/><use x="250.0000000000" y="238.0000000000" xlink:href="#block"/><use x="262.0000000000" y="238.0000000000" xlink:href="#block"/><use x="274.0000000000" y="238.0000000000" xlink:href="#block"/><use x="286.0000000000" y="238.0000000000" xlink:href="#block"/><use x="298.0000000000" y="238.0000000000" xlink:href="#block"/><use x="310.0000000000" y="238.0000000000" xlink:href="#block"/><use x="322.0000000000" y="238.0000000000" xlink:href="#block"/><use x="334.0000000000" y="238.0000000000" xlink:href="#block"/><use x="346.0000000000" y="238.0000000000" xlink:href="#block"/><use x="370.0000000000" y="238.0000000000" xlink:href="#block"/><use x="34.0000000000" y="250.0000000000" xlink:href="#block"/><use x="58.0000000000" y="250.0000000000" xlink:href="#block"/><use x="82.0000000000" y="250.0000000000" xlink:href="#block"/><use x="106.0000000000" y="250.0000000000" xlink:href="#block"/><use x="118.0000000000" y="250.0000000000" xlink:href="#block"/><use x="154.0000000000" y="250.0000000000" xlink:href="#block"/><use x="166.0000000000" y="250.0000000000" xlink:href="#block"/><use x="190.0000000000" y="250.0000000000" xlink:href="#block"/><use x="202.0000000000" y="250.0000000000" xlink:href="#block"/><use x="226.0000000000" y="250.0000000000" xlink:href="#block"/><use x="238.0000000000" y="250.0000000000" xlink:href="#block"/><use x="250.0000000000" y="250.0000000000" xlink:href="#block"/><use x="286.0000000000" y="250.0000000000" xlink:href="#block"/><use x="334.0000000000" y="250.0000000000" xlink:href="#block"/><use x="358.0000000000" y="250.0000000000" xlink:href="#block"/><use x="370.0000000000" y="250.0000000000" xlink:href="#block"/><use x="382.0000000000" y="250.0000000000" xlink:href="#block"/><use x="406.0000000000" y="250.0000000000" xlink:href="#block"/><use x="46.0000000000" y="262.0000000000" xlink:href="#block"/><use x="94.0000000000" y="262.0000000000" xlink:href="#block"/><use x="118.0000000000" y="262.0000000000" xlink:href="#block"/><use x="130.0000000000" y="262.0000000000" xlink:href="#block"/><use x="154.0000000000" y="262.0000000000" xlink:href="#block"/><use x="178.0000000000" y="262.0000000000" xlink:href="#block"/><use x="238.0000000000" y="262.0000000000" xlink:href="#block"/><use x="262.0000000000" y="262.0000000000" xlink:href="#block"/><use x="274.0000000000" y="262.0000000000" xlink:href="#block"/><use x="298.0000000000" y="262.0000000000" xlink:href="#block"/><use x="310.0000000000" y="262.0000000000" xlink:href="#block"/><use x="322.0000000000" y="262.0000000000" xlink:href="#block"/><use x="346.0000000000" y="262.0000000000" xlink:href="#block"/><use x="370.0000000000" y="262.0000000000" xlink:href="#block"/><use x="394.0000000000" y="262.0000000000" xlink:href="#block"/><use x="106.0000000000" y="274.0000000000" xlink:href="#block"/><use x="118.0000000000" y="274.0000000000" xlink:href="#block"/><use x="154.0000000000" y="274.0000000000" xlink:href="#block"/><use x="178.0000000000" y="274.0000000000" xlink:href="#block"/><use x="190.0000000000" y="274.0000000000" xlink:href="#block"/><use x="202.0000000000" y="274.0000000000" xlink:href="#block"/><use x="214.0000000000" y="274.0000000000" xlink:href="#block"/><use x="226.0000000000" y="274.0000000000" xlink:href="#block"/><use x="250.0000000000" y="274.0000000000" xlink:href="#block"/><use x="274.0000000000" y="274.0000000000" xlink:href="#block"/><use x="286.0000000000" y="274.0000000000" xlink:href="#block"/><use x="298.0000000000" y="274.0000000000" xlink:href="#block"/><use x="322.0000000000" y="274.0000000000" xlink:href="#block"/><use x="358.0000000000" y="274.0000000000" xlink:href="#block"/><use x="370.0000000000" y="274.0000000000" xlink:href="#block"/><use x="22.0000000000" y="286.0000000000" xlink:href="#block"/><use x="34.0000000000" y="286.0000000000" xlink:href="#block"/><use x="58.0000000000" y="286.0000000000" xlink:href="#block"/><use x="70.0000000000" y="286.0000000000" xlink:href="#block"/><use x="94.0000000000" y="286.0000000000" xlink:href="#block"/><use x="118.0000000000" y="286.0000000000" xlink:href="#block"/><use x="130.0000000000" y="286.0000000000" xlink:href="#block"/><use x="166.0000000000" y="286.0000000000" xlink:href="#block"/><use x="190.0000000000" y="286.0000000000" xlink:href="#block"/><use x="274.0000000000" y="286.0000000000" xlink:href="#block"/><use x="286.0000000000" y="286.0000000000" xlink:href="#block"/><use x="322.0000000000" y="286.0000000000" xlink:href="#block"/><use x="334.0000000000" y="286.0000000000" xlink:href="#block"/><use x="358.0000000000" y="286.0000000000" xlink:href="#block"/><use x="394.0000000000" y="286.0000000000" xlink:href="#block"/><use x="34.0000000000" y="298.0000000000" xlink:href="#block"/><use x="46.0000000000" y="298.0000000000" xlink:href="#block"/><use x="58.0000000000" y="298.0000000000" xlink:href="#block"/><use x="70.0000000000" y="298.0000000000" xlink:href="#block"/><use x="166.0000000000" y="298.0000000000" xlink:href="#block"/><use x="178.0000000000" y="298.0000000000" xlink:href="#block"/><use x="202.0000000000" y="298.0000000000" xlink:href="#block"/><use x="214.0000000000" y="298.0000000000" xlink:href="#block"/><use x="274.0000000000" y="298.0000000000" xlink:href="#block"/><use x="286.0000000000" y="298.0000000000" xlink:href="#block"/><use x="298.0000000000" y="298.0000000000" xlink:href="#block"/><use x="310.0000000000" y="298.0000000000" xlink:href="#block"/><use x="322.0000000000" y="298.0000000000" xlink:href="#block"/><use x="370.0000000000" y="298.0000000000" xlink:href="#block"/><use x="382.0000000000" y="298.0000000000" xlink:href="#block"/><use x="394.0000000000" y="298.0000000000" xlink:href="#block"/><use x="406.0000000000" y="298.0000000000" xlink:href="#block"/><use x="22.0000000000" y="310.0000000000" xlink:href="#block"/><use x="46.0000000000" y="310.0000000000" xlink:href="#block"/><use x="70.0000000000" y="310.0000000000" xlink:href="#block"/><use x="82.0000000000" y="310.0000000000" xlink:href="#block"/><use x="94.0000000000" y="310.0000000000" xlink:href="#block"/><use x="118.0000000000" y="310.0000000000" xlink:href="#block"/><use x="190.0000000000" y="310.0000000000" xlink:href="#block"/><use x="226.0000000000" y="310.0000000000" xlink:href="#block"/><use x="238.0000000000" y="310.0000000000" xlink:href="#block"/><use x="262.0000000000" y="310.0000000000" xlink:href="#block"/><use x="274.0000000000" y="310.0000000000" xlink:href="#block"/><use x="310.0000000000" y="310.0000000000" xlink:href="#block"/><use x="322.0000000000" y="310.0000000000" xlink:href="#block"/><use x="334.0000000000" y="310.0000000000" xlink:href="#block"/><use x="346.0000000000" y="310.0000000000" xlink:href="#block"/><use x="358.0000000000" y="310.0000000000" xlink:href="#block"/><use x="370.0000000000" y="310.0000000000" xlink:href="#block"/><use x="394.0000000000" y="310.0000000000" xlink:href="#block"/><use x="406.0000000000" y="310.0000000000" xlink:href="#block"/><use x="118.0000000000" y="322.0000000000" xlink:href="#block"/><use x="130.0000000000" y="322.0000000000" xlink:href="#block"/><use x="142.0000000000" y="322.0000000000" xlink:href="#block"/><use x="166.0000000000" y="322.0000000000" xlink:href="#block"/><use x="190.0000000000" y="322.0000000000" xlink:href="#block"/><use x="202.0000000000" y="322.0000000000" xlink:href="#block"/><use x="226.0000000000" y="322.0000000000" xlink:href="#block"/><use x="238.0000000000" y="322.0000000000" xlink:href="#block"/><use x="250.0000000000" y="322.0000000000" xlink:href="#block"/><use x="262.0000000000" y="322.0000000000" xlink:href="#block"/><use x="274.0000000000" y="322.0000000000" xlink:href="#block"/><use x="286.0000000000" y="322.0000000000" xlink:href="#block"/><use x="298.0000000000" y="322.0000000000" xlink:href="#block"/><use x="310.0000000000" y="322.0000000000" xlink:href="#block"/><use x="358.0000000000" y="322.0000000000" xlink:href="#block"/><use x="370.0000000000" y="322.0000000000" xlink:href="#block"/><use x="22.0000000000" y="334.0000000000" xlink:href="#block"/><use x="34.0000000000" y="334.0000000000" xlink:href="#block"/><use x="46.0000000000" y="334.0000000000" xlink:href="#block"/><use x="58.0000000000" y="334.0000000000" xlink:href="#block"/><use x="70.0000000000" y="334.0000000000" xlink:href="#block"/><use x="82.0000000000" y="334.0000000000" xlink:href="#block"/><use x="94.0000000000" y="334.0000000000" xlink:href="#block"/><use x="118.0000000000" y="334.0000000000" xlink:href="#block"/><use x="130.0000000000" y="334.0000000000" xlink:href="#block"/><use x="154.0000000000" y="334.0000000000" xlink:href="#block"/><use x="178.0000000000" y="334.0000000000" xlink:href="#block"/><use x="202.0000000000" y="334.0000000000" xlink:href="#block"/><use x="214.0000000000" y="334.0000000000" xlink:href="#block"/><use x="226.0000000000" y="334.0000000000" xlink:href="#block"/><use x="274.0000000000" y="334.0000000000" xlink:href="#block"/><use x="298.0000000000" y="334.0000000000" xlink:href="#block"/><use x="310.0000000000" y="334.0000000000" xlink:href="#block"/><use x="334.0000000000" y="334.0000000000" xlink:href="#block"/><use x="358.0000000000" y="334.0000000000" xlink:href="#block"/><use x="370.0000000000" y="334.0000000000" xlink:href="#block"/><use x="394.0000000000" y="334.0000000000" xlink:href="#block"/><use x="22.0000000000" y="346.0000000000" xlink:href="#block"/><use x="94.0000000000" y="346.0000000000" xlink:href="#block"/><use x="142.0000000000" y="346.0000000000" xlink:href="#block"/><use x="262.0000000000" y="346.0000000000" xlink:href="#block"/><use x="274.0000000000" y="346.0000000000" xlink:href="#block"/><use x="298.0000000000" y="346.0000000000" xlink:href="#block"/><use x="310.0000000000" y="346.0000000000" xlink:href="#block"/><use x="358.0000000000" y="346.0000000000" xlink:href="#block"/><use x="382.0000000000" y="346.0000000000" xlink:href="#block"/><use x="394.0000000000" y="346.0000000000" xlink:href="#block"/><use x="406.0000000000" y="346.0000000000" xlink:href="#block"/><use x="22.0000000000" y="358.0000000000" xlink:href="#block"/><use x="46.0000000000" y="358.0000000000" xlink:href="#block"/><use x="58.0000000000" y="358.0000000000" xlink:href="#block"/><use x="70.0000000000" y="358.0000000000" xlink:href="#block"/><use x="94.0000000000" y="358.0000000000" xlink:href="#block"/><use x="130.0000000000" y="358.0000000000" xlink:href="#block"/><use x="142.0000000000" y="358.0000000000" xlink:href="#block"/><use x="166.0000000000" y="358.0000000000" xlink:href="#block"/><use x="178.0000000000" y="358.0000000000" xlink:href="#block"/><use x="214.0000000000" y="358.0000000000" xlink:href="#block"/><use x="226.0000000000" y="358.0000000000" xlink:href="#block"/><use x="250.0000000000" y="358.0000000000" xlink:href="#block"/><use x="286.0000000000" y="358.0000000000" xlink:href="#block"/><use x="310.0000000000" y="358.0000000000" xlink:href="#block"/><use x="322.0000000000" y="358.0000000000" xlink:href="#block"/><use x="334.0000000000" y="358.0000000000" xlink:href="#block"/><use x="346.0000000000" y="358.0000000000" xlink:href="#block"/><use x="358.0000000000" y="358.0000000000" xlink:href="#block"/><use x="370.0000000000" y="358.0000000000" xlink:href="#block"/><use x="394.0000000000" y="358.0000000000" xlink:href="#block"/><use x="22.0000000000" y="370.0000000000" xlink:href="#block"/><use x="46.0000000000" y="370.0000000000" xlink:href="#block"/><use x="58.0000000000" y="370.0000000000" xlink:href="#block"/><use x="70.0000000000" y="370.0000000000" xlink:href="#block"/><use x="94.0000000000" y="370.0000000000" xlink:href="#block"/><use x="118.0000000000" y="370.0000000000" xlink:href="#block"/><use x="178.0000000000" y="370.0000000000" xlink:href="#block"/><use x="238.0000000000" y="370.0000000000" xlink:href="#block"/><use x="250.0000000000" y="370.0000000000" xlink:href="#block"/><use x="262.0000000000" y="370.0000000000" xlink:href="#block"/><use x="274.0000000000" y="370.0000000000" xlink:href="#block"/><use x="286.0000000000" y="370.0000000000" xlink:href="#block"/><use x="298.0000000000" y="370.0000000000" xlink:href="#block"/><use x="310.0000000000" y="370.0000000000" xlink:href="#block"/><use x="346.0000000000" y="370.0000000000" xlink:href="#block"/><use x="370.0000000000" y="370.0000000000" xlink:href="#block"/><use x="406.0000000000" y="370.0000000000" xlink:href="#block"/><use x="22.0000000000" y="382.0000000000" xlink:href="#block"/><use x="46.0000000000" y="382.0000000000" xlink:href="#block"/><use x="58.0000000000" y="382.0000000000" xlink:href="#block"/><use x="70.0000000000" y="382.0000000000" xlink:href="#block"/><use x="94.0000000000" y="382.0000000000" xlink:href="#block"/><use x="142.0000000000" y="382.0000000000" xlink:href="#block"/><use x="154.0000000000" y="382.0000000000" xlink:href="#block"/><use x="178.0000000000" y="382.0000000000" xlink:href="#block"/><use x="190.0000000000" y="382.0000000000" xlink:href="#block"/><use x="214.0000000000" y="382.0000000000" xlink:href="#block"/><use x="226.0000000000" y="382.0000000000" xlink:href="#block"/><use x="238.0000000000" y="382.0000000000" xlink:href="#block"/><use x="250.0000000000" y="382.0000000000" xlink:href="#block"/><use x="262.0000000000" y="382.0000000000" xlink:href="#block"/><use x="274.0000000000" y="382.0000000000" xlink:href="#block"/><use x="298.0000000000" y="382.0000000000" xlink:href="#block"/><use x="310.0000000000" y="382.0000000000" xlink:href="#block"/><use x="346.0000000000" y="382.0000000000" xlink:href="#block"/><use x="358.0000000000" y="382.0000000000" xlink:href="#block"/><use x="406.0000000000" y="382.0000000000" xlink:href="#block"/><use x="22.0000000000" y="394.0000000000" xlink:href="#block"/><use x="94.0000000000" y="394.0000000000" xlink:href="#block"/><use x="118.0000000000" y="394.0000000000" xlink:href="#block"/><use x="130.0000000000" y="394.0000000000" xlink:href="#block"/><use x="190.0000000000" y="394.0000000000" xlink:href="#block"/><use x="202.0000000000" y="394.0000000000" xlink:href="#block"/><use x="226.0000000000" y="394.0000000000" xlink:href="#block"/><use x="238.0000000000" y="394.0000000000" xlink:href="#block"/><use x="250.0000000000" y="394.0000000000" xlink:href="#block"/><use x="262.0000000000" y="394.0000000000" xlink:href="#block"/><use x="274.0000000000" y="394.0000000000" xlink:href="#block"/><use x="322.0000000000" y="394.0000000000" xlink:href="#block"/><use x="346.0000000000" y="394.0000000000" xlink:href="#block"/><use x="370.0000000000" y="394.0000000000" xlink:href="#block"/><use x="394.0000000000" y="394.0000000000" xlink:href="#block"/><use x="406.0000000000" y="394.0000000000" xlink:href="#block"/><use x="22.0000000000" y="406.0000000000" xlink:href="#block"/><use x="34.0000000000" y="406.0000000000" xlink:href="#block"/><use x="46.0000000000" y="406.0000000000" xlink:href="#block"/><use x="58.0000000000" y="406.0000000000" xlink:href="#block"/><use x="70.0000000000" y="406.0000000000" xlink:href="#block"/><use x="82.0000000000" y="406.0000000000" xlink:href="#block"/><use x="94.0000000000" y="406.0000000000" xlink:href="#block"/><use x="118.0000000000" y="406.0000000000" xlink:href="#block"/><use x="130.0000000000" y="406.0000000000" xlink:href="#block"/><use x="154.0000000000" y="406.0000000000" xlink:href="#block"/><use x="214.0000000000" y="406.0000000000" xlink:href="#block"/><use x="238.0000000000" y="406.0000000000" xlink:href="#block"/><use x="274.0000000000" y="406.0000000000" xlink:href="#block"/><use x="286.0000000000" y="406.0000000000" xlink:href="#block"/><use x="298.0000000000" y="406.0000000000" xlink:href="#block"/><use x="310.0000000000" y="406.0000000000" xlink:href="#block"/><use x="334.0000000000" y="406.0000000000" xlink:href="#block"/><use x="346.0000000000" y="406.0000000000" xlink:href="#block"/><use x="358.0000000000" y="406.0000000000" xlink:href="#block"/><use x="382.0000000000" y="406.0000000000" xlink:href="#block"/><use x="394.0000000000" y="406.0000000000" xlink:href="#block"/></svg>
